<mxfile host="app.diagrams.net" agent="Mozilla/5.0 (Windows NT 10.0; Win64; x64) AppleWebKit/537.36 (KHTML, like Gecko) Chrome/139.0.0.0 Safari/537.36" version="28.2.0">
  <diagram name="Page-1" id="RgPd8JCdnB7LhessTRFQ">
    <mxGraphModel dx="1042" dy="562" grid="1" gridSize="10" guides="1" tooltips="1" connect="1" arrows="1" fold="1" page="1" pageScale="1" pageWidth="850" pageHeight="1100" math="0" shadow="0">
      <root>
        <mxCell id="0" />
        <mxCell id="1" parent="0" />
        <mxCell id="IL4-jScpnrUGTftCn51H-1" value="&lt;font style=&quot;font-size: 14px; color: light-dark(rgb(0, 0, 0), rgb(51, 51, 255));&quot; face=&quot;Times New Roman&quot;&gt;Job Recruitment System&lt;/font&gt;" style="shape=rectangle;rounded=1;whiteSpace=wrap;html=1;strokeWidth=2;fillColor=#6a00ff;fontColor=#ffffff;strokeColor=#3700CC;" vertex="1" parent="1">
          <mxGeometry x="230" y="30" width="440" height="540" as="geometry" />
        </mxCell>
        <mxCell id="IL4-jScpnrUGTftCn51H-2" value="Register / Login" style="ellipse;whiteSpace=wrap;html=1;fillColor=#0050ef;fontColor=#ffffff;strokeColor=#001DBC;" vertex="1" parent="IL4-jScpnrUGTftCn51H-1">
          <mxGeometry x="40" y="40" width="140" height="50" as="geometry" />
        </mxCell>
        <mxCell id="IL4-jScpnrUGTftCn51H-3" value="Update Profile" style="ellipse;whiteSpace=wrap;html=1;fillColor=#0050ef;fontColor=#ffffff;strokeColor=#001DBC;" vertex="1" parent="IL4-jScpnrUGTftCn51H-1">
          <mxGeometry x="40" y="110" width="140" height="50" as="geometry" />
        </mxCell>
        <mxCell id="IL4-jScpnrUGTftCn51H-4" value="Search Jobs" style="ellipse;whiteSpace=wrap;html=1;fillColor=#0050ef;fontColor=#ffffff;strokeColor=#001DBC;" vertex="1" parent="IL4-jScpnrUGTftCn51H-1">
          <mxGeometry x="40" y="180" width="140" height="50" as="geometry" />
        </mxCell>
        <mxCell id="IL4-jScpnrUGTftCn51H-5" value="Apply for Job" style="ellipse;whiteSpace=wrap;html=1;fillColor=#0050ef;fontColor=#ffffff;strokeColor=#001DBC;" vertex="1" parent="IL4-jScpnrUGTftCn51H-1">
          <mxGeometry x="40" y="280" width="140" height="50" as="geometry" />
        </mxCell>
        <mxCell id="IL4-jScpnrUGTftCn51H-6" value="Upload Resume" style="ellipse;whiteSpace=wrap;html=1;fillColor=#0050ef;fontColor=#ffffff;strokeColor=#001DBC;" vertex="1" parent="IL4-jScpnrUGTftCn51H-1">
          <mxGeometry x="40" y="340" width="140" height="50" as="geometry" />
        </mxCell>
        <mxCell id="IL4-jScpnrUGTftCn51H-7" value="View Application Status" style="ellipse;whiteSpace=wrap;html=1;fillColor=#0050ef;fontColor=#ffffff;strokeColor=#001DBC;" vertex="1" parent="IL4-jScpnrUGTftCn51H-1">
          <mxGeometry x="40" y="395" width="160" height="50" as="geometry" />
        </mxCell>
        <mxCell id="IL4-jScpnrUGTftCn51H-8" value="Accept/Reject Interview" style="ellipse;whiteSpace=wrap;html=1;fillColor=#0050ef;fontColor=#ffffff;strokeColor=#001DBC;" vertex="1" parent="IL4-jScpnrUGTftCn51H-1">
          <mxGeometry x="40" y="460" width="160" height="50" as="geometry" />
        </mxCell>
        <mxCell id="IL4-jScpnrUGTftCn51H-9" value="Post Job" style="ellipse;whiteSpace=wrap;html=1;fillColor=#0050ef;fontColor=#ffffff;strokeColor=#001DBC;" vertex="1" parent="IL4-jScpnrUGTftCn51H-1">
          <mxGeometry x="240" y="40" width="140" height="50" as="geometry" />
        </mxCell>
        <mxCell id="IL4-jScpnrUGTftCn51H-10" value="Edit / Delete Job" style="ellipse;whiteSpace=wrap;html=1;fillColor=#0050ef;fontColor=#ffffff;strokeColor=#001DBC;" vertex="1" parent="IL4-jScpnrUGTftCn51H-1">
          <mxGeometry x="240" y="110" width="160" height="50" as="geometry" />
        </mxCell>
        <mxCell id="IL4-jScpnrUGTftCn51H-11" value="View Applications" style="ellipse;whiteSpace=wrap;html=1;fillColor=#0050ef;fontColor=#ffffff;strokeColor=#001DBC;" vertex="1" parent="IL4-jScpnrUGTftCn51H-1">
          <mxGeometry x="240" y="180" width="160" height="50" as="geometry" />
        </mxCell>
        <mxCell id="IL4-jScpnrUGTftCn51H-12" value="Shortlist Candidates" style="ellipse;whiteSpace=wrap;html=1;fillColor=#0050ef;fontColor=#ffffff;strokeColor=#001DBC;" vertex="1" parent="IL4-jScpnrUGTftCn51H-1">
          <mxGeometry x="240" y="280" width="160" height="50" as="geometry" />
        </mxCell>
        <mxCell id="IL4-jScpnrUGTftCn51H-13" value="Schedule Interview" style="ellipse;whiteSpace=wrap;html=1;fillColor=#0050ef;fontColor=#ffffff;strokeColor=#001DBC;" vertex="1" parent="IL4-jScpnrUGTftCn51H-1">
          <mxGeometry x="240" y="340" width="160" height="50" as="geometry" />
        </mxCell>
        <mxCell id="IL4-jScpnrUGTftCn51H-14" value="Manage Users" style="ellipse;whiteSpace=wrap;html=1;fillColor=#0050ef;fontColor=#ffffff;strokeColor=#001DBC;" vertex="1" parent="IL4-jScpnrUGTftCn51H-1">
          <mxGeometry x="240" y="400" width="160" height="50" as="geometry" />
        </mxCell>
        <mxCell id="IL4-jScpnrUGTftCn51H-15" value="Generate Reports" style="ellipse;whiteSpace=wrap;html=1;fillColor=#0050ef;fontColor=#ffffff;strokeColor=#001DBC;" vertex="1" parent="IL4-jScpnrUGTftCn51H-1">
          <mxGeometry x="240" y="460" width="160" height="50" as="geometry" />
        </mxCell>
        <mxCell id="IL4-jScpnrUGTftCn51H-16" value="Job Seeker" style="shape=umlActor;verticalLabelPosition=bottom;verticalAlign=top;fontFamily=Courier New;fontColor=light-dark(#000000,#33FF33);fontSize=13;" vertex="1" parent="1">
          <mxGeometry x="40" y="160" width="40" height="80" as="geometry" />
        </mxCell>
        <mxCell id="IL4-jScpnrUGTftCn51H-17" value="Employer" style="shape=umlActor;verticalLabelPosition=bottom;verticalAlign=top;fontColor=light-dark(#000000,#33FF33);fontFamily=Courier New;fontSize=13;" vertex="1" parent="1">
          <mxGeometry x="760" y="160" width="40" height="80" as="geometry" />
        </mxCell>
        <mxCell id="IL4-jScpnrUGTftCn51H-18" value="Admin" style="shape=umlActor;verticalLabelPosition=bottom;verticalAlign=top;fontColor=light-dark(#000000,#33FF33);fontFamily=Courier New;fontSize=13;" vertex="1" parent="1">
          <mxGeometry x="760" y="420" width="40" height="80" as="geometry" />
        </mxCell>
        <mxCell id="IL4-jScpnrUGTftCn51H-19" edge="1" parent="1" source="IL4-jScpnrUGTftCn51H-16" target="IL4-jScpnrUGTftCn51H-2">
          <mxGeometry relative="1" as="geometry" />
        </mxCell>
        <mxCell id="IL4-jScpnrUGTftCn51H-20" edge="1" parent="1" source="IL4-jScpnrUGTftCn51H-16" target="IL4-jScpnrUGTftCn51H-3">
          <mxGeometry relative="1" as="geometry" />
        </mxCell>
        <mxCell id="IL4-jScpnrUGTftCn51H-21" edge="1" parent="1" source="IL4-jScpnrUGTftCn51H-16" target="IL4-jScpnrUGTftCn51H-4">
          <mxGeometry relative="1" as="geometry" />
        </mxCell>
        <mxCell id="IL4-jScpnrUGTftCn51H-22" edge="1" parent="1" source="IL4-jScpnrUGTftCn51H-16" target="IL4-jScpnrUGTftCn51H-5">
          <mxGeometry relative="1" as="geometry" />
        </mxCell>
        <mxCell id="IL4-jScpnrUGTftCn51H-23" edge="1" parent="1" source="IL4-jScpnrUGTftCn51H-16" target="IL4-jScpnrUGTftCn51H-6">
          <mxGeometry relative="1" as="geometry" />
        </mxCell>
        <mxCell id="IL4-jScpnrUGTftCn51H-24" edge="1" parent="1" source="IL4-jScpnrUGTftCn51H-16" target="IL4-jScpnrUGTftCn51H-7">
          <mxGeometry relative="1" as="geometry" />
        </mxCell>
        <mxCell id="IL4-jScpnrUGTftCn51H-25" edge="1" parent="1" source="IL4-jScpnrUGTftCn51H-16" target="IL4-jScpnrUGTftCn51H-8">
          <mxGeometry relative="1" as="geometry" />
        </mxCell>
        <mxCell id="IL4-jScpnrUGTftCn51H-26" edge="1" parent="1" source="IL4-jScpnrUGTftCn51H-17" target="IL4-jScpnrUGTftCn51H-9">
          <mxGeometry relative="1" as="geometry" />
        </mxCell>
        <mxCell id="IL4-jScpnrUGTftCn51H-27" edge="1" parent="1" source="IL4-jScpnrUGTftCn51H-17" target="IL4-jScpnrUGTftCn51H-10">
          <mxGeometry relative="1" as="geometry" />
        </mxCell>
        <mxCell id="IL4-jScpnrUGTftCn51H-28" edge="1" parent="1" source="IL4-jScpnrUGTftCn51H-17" target="IL4-jScpnrUGTftCn51H-11">
          <mxGeometry relative="1" as="geometry" />
        </mxCell>
        <mxCell id="IL4-jScpnrUGTftCn51H-29" edge="1" parent="1" source="IL4-jScpnrUGTftCn51H-17" target="IL4-jScpnrUGTftCn51H-12">
          <mxGeometry relative="1" as="geometry" />
        </mxCell>
        <mxCell id="IL4-jScpnrUGTftCn51H-30" edge="1" parent="1" source="IL4-jScpnrUGTftCn51H-17" target="IL4-jScpnrUGTftCn51H-13">
          <mxGeometry relative="1" as="geometry" />
        </mxCell>
        <mxCell id="IL4-jScpnrUGTftCn51H-31" edge="1" parent="1" source="IL4-jScpnrUGTftCn51H-18" target="IL4-jScpnrUGTftCn51H-14">
          <mxGeometry relative="1" as="geometry" />
        </mxCell>
        <mxCell id="IL4-jScpnrUGTftCn51H-32" edge="1" parent="1" source="IL4-jScpnrUGTftCn51H-18" target="IL4-jScpnrUGTftCn51H-15">
          <mxGeometry relative="1" as="geometry" />
        </mxCell>
      </root>
    </mxGraphModel>
  </diagram>
</mxfile>
